<mxfile host="app.diagrams.net" modified="2020-09-10T17:28:15.479Z" agent="5.0 (X11)" etag="BgPPqAAoJgFEdeIkNZeu" version="13.6.9" type="github">
  <diagram id="ju_p1HaEZu-QdkVc3XQt" name="Page-1">
    <mxGraphModel dx="811" dy="498" grid="1" gridSize="10" guides="1" tooltips="1" connect="1" arrows="1" fold="1" page="1" pageScale="1" pageWidth="850" pageHeight="1100" math="0" shadow="0">
      <root>
        <mxCell id="0" />
        <mxCell id="1" parent="0" />
        <mxCell id="AQ5POCD9kcWEuEW1KcTd-9" style="edgeStyle=orthogonalEdgeStyle;rounded=0;orthogonalLoop=1;jettySize=auto;html=1;" edge="1" parent="1" source="AQ5POCD9kcWEuEW1KcTd-7" target="AQ5POCD9kcWEuEW1KcTd-1">
          <mxGeometry relative="1" as="geometry" />
        </mxCell>
        <mxCell id="AQ5POCD9kcWEuEW1KcTd-7" value="" style="rounded=1;whiteSpace=wrap;html=1;strokeColor=#d6b656;fillColor=#99FFFF;" vertex="1" parent="1">
          <mxGeometry x="50" y="50" width="670" height="180" as="geometry" />
        </mxCell>
        <mxCell id="AQ5POCD9kcWEuEW1KcTd-10" style="edgeStyle=orthogonalEdgeStyle;rounded=0;orthogonalLoop=1;jettySize=auto;html=1;exitX=0.5;exitY=1;exitDx=0;exitDy=0;" edge="1" parent="1" source="AQ5POCD9kcWEuEW1KcTd-1">
          <mxGeometry relative="1" as="geometry">
            <mxPoint x="385" y="460" as="targetPoint" />
          </mxGeometry>
        </mxCell>
        <mxCell id="AQ5POCD9kcWEuEW1KcTd-1" value="&lt;font style=&quot;font-size: 13px&quot;&gt;&lt;b&gt;trajectory_publisher.cpp&lt;/b&gt;&lt;/font&gt;" style="rounded=1;whiteSpace=wrap;html=1;fillColor=#e1d5e7;strokeColor=#9673a6;" vertex="1" parent="1">
          <mxGeometry x="300" y="310" width="170" height="50" as="geometry" />
        </mxCell>
        <mxCell id="AQ5POCD9kcWEuEW1KcTd-2" value="&lt;b&gt;circle_maneuver.cpp&lt;/b&gt;" style="rounded=1;whiteSpace=wrap;html=1;fillColor=#e1d5e7;strokeColor=#9673a6;" vertex="1" parent="1">
          <mxGeometry x="90" y="110" width="130" height="60" as="geometry" />
        </mxCell>
        <mxCell id="AQ5POCD9kcWEuEW1KcTd-3" value="&lt;b&gt;slit_maneuver.cpp&lt;/b&gt;" style="rounded=1;whiteSpace=wrap;html=1;fillColor=#e1d5e7;strokeColor=#9673a6;" vertex="1" parent="1">
          <mxGeometry x="325" y="110" width="120" height="60" as="geometry" />
        </mxCell>
        <mxCell id="AQ5POCD9kcWEuEW1KcTd-4" value="&lt;b&gt;flip_maneuver.cpp&lt;/b&gt;" style="rounded=1;whiteSpace=wrap;html=1;fillColor=#e1d5e7;strokeColor=#9673a6;" vertex="1" parent="1">
          <mxGeometry x="550" y="110" width="120" height="60" as="geometry" />
        </mxCell>
        <mxCell id="AQ5POCD9kcWEuEW1KcTd-8" value="&lt;b&gt;&lt;font style=&quot;font-size: 14px&quot;&gt;trajectory_class.h&lt;/font&gt;&lt;/b&gt;" style="text;html=1;strokeColor=none;fillColor=none;align=center;verticalAlign=middle;whiteSpace=wrap;rounded=0;" vertex="1" parent="1">
          <mxGeometry x="67" y="52" width="120" height="40" as="geometry" />
        </mxCell>
        <mxCell id="AQ5POCD9kcWEuEW1KcTd-11" value="&lt;div align=&quot;left&quot;&gt;Desired &lt;br&gt;&lt;/div&gt;&lt;div align=&quot;left&quot;&gt;Trajectory&lt;/div&gt;" style="text;html=1;align=left;verticalAlign=middle;resizable=0;points=[];autosize=1;" vertex="1" parent="1">
          <mxGeometry x="390" y="395" width="70" height="30" as="geometry" />
        </mxCell>
      </root>
    </mxGraphModel>
  </diagram>
</mxfile>
